<svg xmlns="http://www.w3.org/2000/svg" viewBox="0 0 1237.26 493.62"><defs><style>.cls-1{fill:#fff;stroke:#231f20;stroke-miterlimit:10;}.cls-15,.cls-2{font-size:34.47px;}.cls-15,.cls-16,.cls-19,.cls-2,.cls-28{fill:#231f20;}.cls-15,.cls-19,.cls-2,.cls-28{font-family:Verveine-Regular, Verveine;}.cls-3{letter-spacing:-0.02em;}.cls-4{letter-spacing:-0.02em;}.cls-5{letter-spacing:0em;}.cls-6{letter-spacing:-0.02em;}.cls-7{letter-spacing:-0.01em;}.cls-8{letter-spacing:-0.02em;}.cls-9{fill:#f36e21;}.cls-10{letter-spacing:-0.02em;}.cls-11{letter-spacing:-0.03em;}.cls-12{letter-spacing:-0.01em;}.cls-13{letter-spacing:-0.01em;}.cls-14{fill:#6cc176;}.cls-15{letter-spacing:-0.04em;}.cls-17{fill:#69cce2;}.cls-18{fill:#f8991d;}.cls-19{font-size:60.52px;}.cls-20{letter-spacing:-0.05em;}.cls-21{letter-spacing:-0.02em;}.cls-22{letter-spacing:-0.01em;}.cls-23{letter-spacing:-0.02em;}.cls-24{letter-spacing:-0.02em;}.cls-25{letter-spacing:-0.05em;}.cls-26{letter-spacing:0.04em;}.cls-27{letter-spacing:-0.01em;}.cls-28{font-size:28px;}.cls-29{letter-spacing:-0.02em;}.cls-30{letter-spacing:-0.01em;}.cls-31{letter-spacing:0em;}</style></defs><g id="Layer_2" data-name="Layer 2"><rect class="cls-1" x="0.5" y="0.5" width="1236.26" height="492.62"/></g><g id="Layer_1" data-name="Layer 1"><text class="cls-2" transform="translate(1087.61 143.36)">B<tspan class="cls-3" x="13.65" y="0">a</tspan><tspan x="27.37" y="0">c</tspan><tspan class="cls-4" x="37.15" y="0">k</tspan><tspan class="cls-5" x="49.63" y="0">end</tspan></text><text class="cls-2" transform="translate(361.35 448.76)">3<tspan class="cls-6" x="11.92" y="0">d</tspan><tspan x="25.75" y="0">s </tspan></text><text class="cls-2" transform="translate(1068.19 367.12)">Author<tspan class="cls-7" x="75.55" y="0">i</tspan><tspan class="cls-5" x="81.79" y="0">z</tspan><tspan class="cls-4" x="93.78" y="0">a</tspan><tspan class="cls-5" x="107.33" y="0">tion</tspan></text><text class="cls-2" transform="translate(321.12 258.15)">B<tspan class="cls-8" x="13.65" y="0">r</tspan><tspan x="23.61" y="0">ow</tspan><tspan class="cls-7" x="53.46" y="0">s</tspan><tspan x="61.45" y="0">er</tspan></text><path class="cls-9" d="M363.91,262.44A72.53,72.53,0,0,1,378,287.33a176.05,176.05,0,0,1,6.49,28.25,252.69,252.69,0,0,1,2.13,63.54,258,258,0,0,1-6.06,36.32c-.17.7,2.68.28,2.86-.49a256.78,256.78,0,0,0,7.16-64.05,254.29,254.29,0,0,0-2.64-32.5,197.12,197.12,0,0,0-6.17-29.16,75.13,75.13,0,0,0-15.1-27.81c-.5-.57-3.23.44-2.73,1Z" transform="translate(0.5 1.04)"/><path class="cls-9" d="M362.2,419.1A73.93,73.93,0,0,1,348,393.05,114.46,114.46,0,0,1,343.61,366c-.61-10.38-.62-20.81-.69-31.21-.07-11.52-.18-23.05,0-34.57.22-12.79,1.62-25.38,6.44-37.32l-2.61.88c1.85.68,3.91,1.72,4.71,3.64.4,1,3.26.12,2.89-.77-.91-2.21-3.15-3.47-5.29-4.26a2.23,2.23,0,0,0-2.6.88c-4.32,10.71-6,22-6.34,33.47s-.17,22.74-.13,34.1c.05,10.93.06,21.89.55,32.82A126.49,126.49,0,0,0,344.28,391a75.83,75.83,0,0,0,15.23,29.27c.63.75,3.41-.28,2.69-1.13Z" transform="translate(0.5 1.04)"/><text class="cls-2" transform="translate(544.13 256.69)">Me<tspan class="cls-10" x="30.43" y="0">r</tspan><tspan x="40.39" y="0">ch</tspan><tspan class="cls-7" x="63.18" y="0">a</tspan><tspan class="cls-11" x="77.07" y="0">n</tspan><tspan x="90.71" y="0">tB</tspan><tspan class="cls-12" x="115.63" y="0">a</tspan><tspan x="129.35" y="0">c</tspan><tspan class="cls-10" x="139.14" y="0">k</tspan><tspan x="151.61" y="0">end</tspan></text><text class="cls-2" transform="translate(922.14 143.36)">2.a</text><text class="cls-2" transform="translate(35.94 253.59)"><tspan class="cls-8">U</tspan><tspan class="cls-13" x="14.58" y="0">s</tspan><tspan x="22.58" y="0">er</tspan></text><path class="cls-14" d="M100.92,242.84c26.71-1.35,53.43-2.7,80.17-3.25s53.36-.32,80,1.51c14.94,1,29.84,2.57,44.66,4.73a2.89,2.89,0,0,0,2-.55c.4-.38.41-.71-.21-.8a655.63,655.63,0,0,0-80-6.29c-26.73-.59-53.47.05-80.18,1.15-15.08.62-30.15,1.38-45.23,2.14-.54,0-1.63.2-1.93.73s.26.66.73.63Z" transform="translate(0.5 1.04)"/><path class="cls-14" d="M301.78,240.82a58.32,58.32,0,0,1,10.77,4.88l-.22-.8a7.84,7.84,0,0,1-1.85,2.7,7.24,7.24,0,0,1-1.18.88,5.5,5.5,0,0,1-1.24.54c-.46.14-1.4.55-1.23,1.19s1.22.54,1.66.41a10.21,10.21,0,0,0,6.56-5.59.55.55,0,0,0-.22-.8,59.38,59.38,0,0,0-11.3-5.08,2.24,2.24,0,0,0-2,.55c-.48.46-.29.93.3,1.12Z" transform="translate(0.5 1.04)"/><text class="cls-15" transform="translate(1088.92 250.86)">R<tspan class="cls-5" x="14.65" y="0">esul</tspan><tspan class="cls-4" x="55.11" y="0">t</tspan><tspan class="cls-5" x="65.69" y="0">s</tspan></text><text class="cls-2" transform="translate(164.54 219.6)">1</text><text class="cls-2" transform="translate(476.34 219.6)">2</text><text class="cls-2" transform="translate(365.78 339.81)">3</text><text x="0.5" y="1.04"/><text class="cls-2" transform="translate(476.34 295.29)">4</text><text class="cls-2" transform="translate(905.94 250.86)">4.a</text><text class="cls-2" transform="translate(852.87 356.94)">4.b</text><path class="cls-16" d="M348.65,418.46a3.55,3.55,0,0,0,2.05-.55c.38-.29.48-.59-.15-.59a3.68,3.68,0,0,0-2.05.55c-.38.3-.48.59.15.59Z" transform="translate(0.5 1.04)"/><path class="cls-9" d="M349.42,418.34c2.39,1.93,5.19,3.65,8.39,2.9a5.1,5.1,0,0,0,3.91-4.61,2.74,2.74,0,0,0-1.54-2.62,2.11,2.11,0,0,0-2.07.22c-.39.27-.86,1-.2,1.33l.31.16.14.1c-.1-.08-.1-.08,0,0l.2.24.09.13c-.06-.1-.06-.11,0,0a3.25,3.25,0,0,1,.17.61c0,.06,0,.11,0,.17h0c0,.11,0,.23,0,.34a5.15,5.15,0,0,1-.15.68c0,.12,0,.12,0,0,0,.06-.05.11-.07.17s-.1.22-.16.33-.12.21-.19.31l-.11.15c.09-.11.09-.12,0,0l-.25.27-.13.12c.13-.1.16-.13.08-.07s-.18.13-.26.18.28-.15-.07,0,.36-.13-.05,0c-.14,0-.12,0,.08,0l-.28,0-.28,0c.13,0,.12,0-.05,0a5.11,5.11,0,0,1-.55,0c.14,0-.3-.07-.35-.09a4.68,4.68,0,0,1-.53-.17,14.06,14.06,0,0,1-3.78-2.42c-.87-.71-3.48.56-2.27,1.55Z" transform="translate(0.5 1.04)"/><path class="cls-9" d="M365.91,265.69c-.24,0,.3.07-.05,0l.07,0-.13-.08-.12-.08c.11.09.13.1,0,0s-.1-.11-.14-.17-.19-.32-.09-.1l-.12-.29a3.35,3.35,0,0,1-.11-.55c0-.11,0-.1,0,0a.92.92,0,0,1,0-.16,1.65,1.65,0,0,1,0-.31.83.83,0,0,1,0-.15c-.05.12-.05.13,0,0a2,2,0,0,1,.1-.21l.09-.13c-.1.14-.11.15,0,0a1.85,1.85,0,0,0,.14-.14c-.13.11-.14.12,0,0l.16-.1-.07,0,.18-.07-.15.05.14,0c.17,0,.13,0-.1,0,0,0,.36-.05.4,0-.2,0-.23,0-.07,0h.2s.41.07.24,0l.23.06.38.14c-.24-.1.17.09.21.12a4.05,4.05,0,0,1,.35.21,6.13,6.13,0,0,1,1.21,1.08c.42.46.8.95,1.18,1.44s1.42.4,1.94.14,1.16-.8.72-1.37c-1.47-1.89-3.22-3.79-5.81-3.8a5.2,5.2,0,0,0-3.84,1.47,3,3,0,0,0-.71,2.73,2.66,2.66,0,0,0,2.44,2,2,2,0,0,0,1.89-.85c.33-.63-.28-1-.84-1.08Z" transform="translate(0.5 1.04)"/><path class="cls-17" d="M423.59,234.67a335.16,335.16,0,0,1,80.3-2.81q11.42,1,22.75,2.74a3.56,3.56,0,0,0,2-.38c.21-.1,1-.62.36-.72a340.22,340.22,0,0,0-81.78-2.7q-11.6,1-23.11,2.84c-.3.05-1.7.35-1.7.78s.85.3,1.16.25Z" transform="translate(0.5 1.04)"/><path class="cls-17" d="M529.29,231.57l.35.08c.08,0,0,0,0,0l.07,0,.17.08a2.48,2.48,0,0,1,.55.43,2.7,2.7,0,0,1,.33.5,4,4,0,0,1,.26.65,3.38,3.38,0,0,1-.34,2.71,1.63,1.63,0,0,1-.11.17l0,.06c-.06.08.08-.09,0,0l-.28.27c-.11.1.19-.12,0,0l-.07,0c-.13.09.13-.07.14-.07-.26.13.28-.1.09,0l.25-.07c-.12,0-.32.06.19-.05a4.85,4.85,0,0,0-1.1.35c-.16.07-.52.24-.6.43-.19.47,1,.28,1.15.26,1.56-.32,3.15-1.05,3.58-2.7a3.73,3.73,0,0,0-.51-3.18,2.65,2.65,0,0,0-1.67-1,3.56,3.56,0,0,0-2,.38c-.22.11-1,.61-.36.73Z" transform="translate(0.5 1.04)"/><path class="cls-18" d="M419.73,262.73q42.66-1.64,85.37-1.91,12-.07,24,0c.56,0,1.63-.2,1.92-.77s-.25-.76-.77-.77q-42.69-.12-85.38,1.14-12,.35-24,.81c-.57,0-1.62.19-1.91.77s.24.79.76.77Z" transform="translate(0.5 1.04)"/><path class="cls-18" d="M529.32,258.1a16,16,0,0,1,5.51,3v-.55l-6.49,6.72c-.49.51.42.78.77.78a2.63,2.63,0,0,0,1.91-.77l6.49-6.73a.4.4,0,0,0,0-.55,17.1,17.1,0,0,0-5.89-3.25,2.56,2.56,0,0,0-2,.29c-.31.18-1,.84-.27,1.05Z" transform="translate(0.5 1.04)"/><path class="cls-17" d="M756.65,230.92c12.06-14.46,29.76-21.56,47.44-26.5,9.07-2.54,18.27-4.6,27.4-6.9a292.2,292.2,0,0,0,30.62-9.5c21.52-8,42.12-18.22,63.06-27.6A468.84,468.84,0,0,1,991,136.34a441.71,441.71,0,0,1,69-13.4c3-.34,6-.64,9-.92.48,0,1.72-.19,1.93-.72s-.17-.65-.72-.6a448.08,448.08,0,0,0-137.44,35.08c-21.59,9.31-42.61,19.92-64.47,28.62A284.62,284.62,0,0,1,836,195.21c-9.32,2.47-18.74,4.55-28.06,7-17.65,4.66-35.83,10.85-49.24,23.78a63.61,63.61,0,0,0-4.67,5c-.66.79,2.15.47,2.64-.13Z" transform="translate(0.5 1.04)"/><path class="cls-17" d="M1068.64,114.63c1.39.72,3.09,1.73,3.63,3.29.71,2-1.31,3.44-2.63,4.63l-10.36,9.29c-.43.39-.34.76.24.88a2.81,2.81,0,0,0,2-.55c3.88-3.48,7.8-6.91,11.63-10.44,1.38-1.26,2.76-3,1.84-4.91-.77-1.66-2.5-2.68-4.06-3.49-.74-.39-3.41.73-2.34,1.3Z" transform="translate(0.5 1.04)"/><path class="cls-18" d="M756.63,246.39q29.83-6.78,60.14-11.24t60.87-6.57q30.43-2.1,61-1.86t61.21,2.82q30.39,2.6,60.52,7.51c2.56.42,5.11.85,7.67,1.29a2.65,2.65,0,0,0,2-.55c.39-.4.39-.77-.24-.88q-30.35-5.26-61-8.16t-61.52-3.41q-30.79-.53-61.57,1.32t-61.35,6.06q-30.42,4.2-60.45,10.73c-2.53.55-5.06,1.12-7.59,1.69-.37.09-1.42.47-1.28,1s1.28.31,1.62.23Z" transform="translate(0.5 1.04)"/><path class="cls-18" d="M757.25,248.87a7.79,7.79,0,0,1-3.3-.94,2.15,2.15,0,0,1-1.34-2.22,3.43,3.43,0,0,1,1.21-1.68,12.68,12.68,0,0,1,6-3.17c.5-.12,1.39-.61,1.22-1.25s-1.19-.57-1.67-.46a16.79,16.79,0,0,0-8.28,4.62c-.92.94-1.73,2.24-1.28,3.6a4.23,4.23,0,0,0,2.28,2.29,11.17,11.17,0,0,0,4.13,1.07,2.09,2.09,0,0,0,1.9-.83c.34-.62-.29-1-.83-1Z" transform="translate(0.5 1.04)"/><path class="cls-18" d="M760.19,275a337.83,337.83,0,0,0,51.55,27c17.85,7.65,36.12,14.29,54.43,20.72,19.06,6.7,38.27,13,57.74,18.41a507.55,507.55,0,0,0,58.45,12.82,345.47,345.47,0,0,0,59.4,4.19q3.81-.08,7.63-.25c1.55-.07,2.31-2,.32-1.88a331.13,331.13,0,0,1-59.29-2.94,473.09,473.09,0,0,1-58.44-12c-19.26-5.13-38.27-11.19-57.11-17.69-18.42-6.36-36.79-12.94-54.8-20.38a363.27,363.27,0,0,1-51.6-25.71q-3-1.86-6-3.81c-.93-.61-3.55.72-2.26,1.55Z" transform="translate(0.5 1.04)"/><path class="cls-18" d="M1048,351.2a2.66,2.66,0,0,1,1.64,1.71,4.65,4.65,0,0,1,.12,2.78c-.68,2.38-3.06,3.9-5,5.21a1,1,0,0,0-.13,1.6,1.83,1.83,0,0,0,2.08-.15c2.49-1.7,5.24-3.72,6-6.82.59-2.51-.48-5.52-3.06-6.39a1.89,1.89,0,0,0-2,.55.93.93,0,0,0,.4,1.51Z" transform="translate(0.5 1.04)"/><text class="cls-19" transform="translate(372.36 71.56)"><tspan class="cls-20">P</tspan><tspan x="18.82" y="0">ayne</tspan><tspan class="cls-21" x="112.2" y="0">t</tspan><tspan class="cls-22" x="130.78" y="0">w</tspan><tspan x="160.73" y="0">orx 3</tspan><tspan class="cls-23" x="259.25" y="0">d</tspan><tspan x="283.52" y="0">s D</tspan><tspan class="cls-24" x="335.32" y="0">a</tspan><tspan class="cls-25" x="359.1" y="0">t</tspan><tspan x="375.86" y="0">a</tspan><tspan class="cls-26" x="400.86" y="0">F</tspan><tspan class="cls-27" x="428.57" y="0">l</tspan><tspan x="440.13" y="0">ow</tspan></text><path class="cls-16" d="M1023.27,71.07c-.92,23.4,1.27,46.75,3.22,70a683,683,0,0,1,2.6,69.79c-.87,46.41-6.29,92.56-10.82,138.71-2.56,26-4.83,52.05-5.9,78.17-.06,1.45,2.88,1,2.93-.25,1.89-46.43,7.63-92.57,11.9-138.81,2.14-23.19,3.91-46.42,4.61-69.7a639.73,639.73,0,0,0-1.62-68.82c-2-26.42-5-52.84-4-79.38.06-1.45-2.88-1-2.93.25Z" transform="translate(0.5 1.04)"/><text class="cls-28" transform="translate(1022.61 417.37) rotate(1.71)">payne<tspan class="cls-29" x="53.62" y="0">t</tspan><tspan class="cls-30" x="62.22" y="0">w</tspan><tspan class="cls-31" x="76.08" y="0">orx</tspan></text></g></svg>